<?xml version="1.0" encoding="UTF-8" standalone="no"?>
<!-- Created with Inkscape (http://www.inkscape.org/) -->

<svg
   width="132.29166mm"
   height="132.29167mm"
   viewBox="0 0 132.29166 132.29167"
   version="1.1"
   id="svg1"
   xml:space="preserve"
   xmlns="http://www.w3.org/2000/svg"
   xmlns:svg="http://www.w3.org/2000/svg"><defs
     id="defs1" /><g
     id="layer1"><path
       style="fill:#214aa2;fill-opacity:1;stroke-width:2.76679"
       d="m 55.920467,124.23094 c -1.059676,-0.36568 -2.240393,-1.37008 -3.172177,-2.69849 l -1.484227,-2.11603 -0.06139,-14.42364 C 51.146953,91.904531 51.063654,90.525676 50.302898,90.099928 49.52197,89.662913 48.09188,86.932986 48.09188,85.879315 c 0,-0.256479 0.568555,-1.141936 1.263455,-1.967793 1.674953,-1.990553 4.105164,-2.078095 5.836259,-0.210271 1.658712,1.789776 1.563729,3.785119 -0.267271,5.616146 l -1.464093,1.464099 0.0018,13.749284 c 0.0017,12.92975 0.06055,13.84558 0.986744,15.36473 1.167886,1.91556 3.734739,3.12544 5.768073,2.71875 0.79697,-0.15936 2.159359,-1.02266 3.027519,-1.91837 1.231775,-1.27086 1.629749,-2.16194 1.811801,-4.05669 0.232411,-2.41982 0.2266,-2.43147 -1.715709,-3.42239 -5.034986,-2.56868 -6.381412,-7.50915 -3.189518,-11.70353 1.650109,-2.168379 4.117384,-3.162626 7.129936,-2.873133 1.979823,0.190077 2.713218,0.562016 4.363076,2.211873 1.743869,1.74387 2.010476,2.31217 2.20927,4.70925 0.296436,3.57482 -1.210602,6.05875 -4.495738,7.40985 l -2.228806,0.91666 -0.0018,2.61774 c -0.0057,6.19924 -5.216488,9.79237 -11.206371,7.72534 z m 13.749926,-13.83993 c 0.553046,-0.49246 1.315463,-1.62797 1.694267,-2.52335 0.889405,-2.10234 0.180669,-4.43943 -1.869513,-6.16455 -4.476346,-3.766583 -10.719004,1.76858 -7.976352,7.07233 1.478789,2.85966 5.794078,3.71493 8.151598,1.61557 z m -5.999126,-1.58989 c -1.733609,-1.73362 -1.825521,-3.42354 -0.283706,-5.216 1.468194,-1.70687 3.74788,-1.78473 5.449533,-0.18619 2.017258,1.8951 1.505568,4.8892 -1.069968,6.26094 -1.647921,0.87768 -2.548125,0.68893 -4.095859,-0.8588 z m 15.665314,11.75092 c -0.0057,-0.36095 0.457926,-2.19962 1.030871,-4.0859 2.476051,-8.1519 -0.418749,-17.177519 -8.267603,-25.777304 C 70.406577,88.833545 65.860451,84.788652 61.997391,81.700149 51.716061,73.480324 49.344408,69.488473 49.371448,60.448685 c 0.012,-3.944235 0.204714,-5.055156 1.292406,-7.442444 0.703195,-1.543389 1.483769,-2.806179 1.734602,-2.806179 0.250836,0 3.831641,3.87482 7.957325,8.610717 4.125709,4.735894 8.489527,9.743158 9.697394,11.127268 5.904087,6.765467 14.399479,18.280024 16.043061,21.744503 1.119909,2.360672 1.273881,3.30171 1.277673,7.808464 0.0057,5.796236 -0.528984,7.811116 -3.943854,14.884886 -2.162539,4.47964 -4.073833,7.36334 -4.093474,6.17614 z M 74.201437,69.404998 C 70.175188,64.695883 65.598191,59.381649 64.030339,57.595637 62.462461,55.809597 58.446867,50.724699 55.106756,46.295834 50.242904,39.846495 48.842935,37.62588 48.07484,35.141757 46.357515,29.587781 47.017648,23.071986 50.010107,16.039802 c 1.547019,-3.635437 4.815876,-9.047257 5.220407,-8.642754 0.137511,0.1375091 -0.204465,1.7220161 -0.76009,3.520921 -2.381147,7.70927 -0.662562,15.562304 5.048986,23.071204 2.619227,3.443474 9.197937,9.801314 13.546429,13.091652 9.417424,7.125841 12.136645,11.704776 12.098962,20.373674 -0.0194,4.463783 -1.635752,10.247489 -2.910904,10.415905 -0.412052,0.05449 -3.931761,-3.645762 -8.05246,-8.465406 z M 68.296296,37.094741 c -2.571414,-1.881489 -3.381697,-2.872361 -4.36224,-5.334518 -2.086844,-5.240192 1.863316,-11.762516 7.881892,-13.014178 2.183929,-0.454167 5.645807,0.561877 7.709075,2.262589 7.463941,6.152432 3.283672,17.478736 -6.450993,17.478736 -2.390994,0 -3.1945,-0.234067 -4.777734,-1.392629 z"
       id="path1" /></g></svg>
