<?xml version="1.0" encoding="UTF-8" standalone="no"?>
<!-- Created with Inkscape (http://www.inkscape.org/) -->

<svg
   width="76.729164mm"
   height="76.729172mm"
   viewBox="0 0 76.729164 76.729172"
   version="1.1"
   id="svg1"
   xml:space="preserve"
   xmlns="http://www.w3.org/2000/svg"
   xmlns:svg="http://www.w3.org/2000/svg"><defs
     id="defs1" /><g
     id="layer1"
     transform="translate(-59.531252,-116.41668)"><path
       style="fill:#909090;fill-opacity:1"
       d="m 97.198656,190.62061 c -0.807374,-0.69129 -6.174028,-6.4157 -8.538652,-9.10785 -2.051056,-2.33515 -6.577621,-7.95656 -9.064948,-11.2575 -6.983892,-9.26835 -10.323331,-16.54686 -10.864821,-23.68055 -0.576028,-7.58869 2.50416,-15.15981 8.51213,-20.92287 3.479648,-3.33781 7.256123,-5.56711 12.035945,-7.10498 5.003634,-1.60988 10.574979,-1.84966 15.6938,-0.67542 10.79782,2.47697 19.92675,10.91785 22.41459,20.72519 2.24966,8.86845 -0.69588,18.58672 -9.25404,30.53201 -2.1345,2.97929 -6.61666,8.53789 -9.27474,11.50218 -5.29932,5.9098 -9.098814,10.01984 -9.51458,10.29226 -0.698088,0.45741 -1.367469,0.363 -2.144684,-0.30247 z m 6.746184,-9.15939 c 5.9409,-6.56052 9.43896,-10.85669 12.65461,-15.54187 4.31163,-6.28199 7.01429,-12.14529 7.97579,-17.30312 0.43919,-2.35594 0.43439,-6.28645 -0.0102,-8.37847 -1.28696,-6.05533 -5.19113,-11.46778 -11.14645,-15.45259 -3.23977,-2.16779 -6.8344,-3.60776 -10.79378,-4.32389 -1.77355,-0.32078 -2.48234,-0.359 -5.060999,-0.27291 -2.025521,0.0676 -3.533773,0.21677 -4.64773,0.45961 -9.442481,2.0585 -17.186258,8.78432 -20.016131,17.38492 -2.38927,7.26151 -1.014202,14.52596 4.440627,23.45972 3.951831,6.4722 12.160154,16.75412 19.339605,24.22521 l 1.762205,1.83379 0.70724,-0.78801 c 0.388982,-0.43341 2.546843,-2.81948 4.795243,-5.30239 z"
       id="path25" /><g
       id="g33"
       style="fill:#d53c31;fill-opacity:1"><path
         d="m 82.217721,141.73708 -1.028361,0.52142 c -1.361174,0.68969 -2.791574,2.23977 -3.296957,3.57343 -0.841016,2.21937 -0.370376,4.8475 1.175639,6.56704 1.009609,1.12293 1.597994,1.54109 2.756421,1.95802 0.794423,0.28593 1.457183,0.33348 4.761466,0.33848 l 3.838526,0.006 -0.04651,-6.48229 -0.04599,-6.4823 h -4.057117 z"
         style="fill:#d53c31;fill-opacity:1"
         id="path33" /><path
         d="m 96.417371,141.82545 c -0.194028,0 -0.511873,0.1584 -0.7059,0.35243 -0.194028,0.19403 -0.352434,0.51188 -0.352434,0.7059 0,0.19403 0.158406,0.51136 0.352434,0.70539 0.194027,0.19403 0.511872,0.35295 0.7059,0.35295 0.194028,0 0.511355,-0.15892 0.705383,-0.35295 0.194028,-0.19403 0.35295,-0.51136 0.35295,-0.70539 0,-0.19402 -0.158922,-0.51187 -0.35295,-0.7059 -0.194028,-0.19403 -0.511355,-0.35243 -0.705383,-0.35243 z"
         style="fill:#d53c31;fill-opacity:1"
         id="path32" /><path
         d="m 100.24039,141.82545 c -0.924513,0 -1.359487,1.31591 -0.608745,1.84175 0.215614,0.15102 0.475405,0.27492 0.577745,0.27492 0.10235,0 0.36264,-0.1239 0.57826,-0.27492 0.71983,-0.50419 0.32242,-1.84175 -0.54726,-1.84175 z"
         style="fill:#d53c31;fill-opacity:1"
         id="path31" /><path
         d="m 100.16288,147.14192 c -0.12783,0.006 -0.255405,0.0745 -0.461989,0.20981 -0.595977,0.3905 -0.63142,1.21338 -0.06925,1.60714 0.521069,0.36496 0.899129,0.34637 1.269179,-0.0625 0.43504,-0.48072 0.29958,-1.26659 -0.27389,-1.58699 -0.20813,-0.11628 -0.33622,-0.17331 -0.46405,-0.16743 z"
         style="fill:#d53c31;fill-opacity:1"
         id="path30" /><path
         d="m 96.469047,147.18275 c -0.126379,-0.0177 -0.248053,0.0246 -0.426847,0.11885 -0.777902,0.41001 -0.902929,1.00703 -0.330729,1.57923 0.452401,0.45235 0.962779,0.44851 1.422135,-0.0109 0.46155,-0.46155 0.382943,-1.00442 -0.20929,-1.44487 -0.197634,-0.14699 -0.32889,-0.22466 -0.455269,-0.24236 z"
         style="fill:#d53c31;fill-opacity:1"
         id="path29" /><path
         d="m 96.417371,152.67337 c -0.46873,0 -0.662574,0.10381 -0.865064,0.46457 -0.234018,0.41694 -0.229301,0.5122 0.04186,0.92604 0.213043,0.32515 0.455957,0.46147 0.823206,0.46147 0.36725,0 0.610162,-0.13632 0.823205,-0.46147 0.27116,-0.41384 0.27536,-0.5091 0.04134,-0.92604 -0.20249,-0.36076 -0.395816,-0.46457 -0.864547,-0.46457 z"
         style="fill:#d53c31;fill-opacity:1"
         id="path28" /><path
         d="m 100.20939,152.585 c -0.848764,0 -1.292113,1.06382 -0.692984,1.66295 0.589904,0.5899 1.663464,0.20374 1.663464,-0.59841 0,-0.61797 -0.4074,-1.06454 -0.97048,-1.06454 z"
         style="fill:#d53c31;fill-opacity:1"
         id="path27" /><path
         d="m 98.441536,127.44958 c -1.63944,0 -1.853185,0.042 -2.935738,0.57516 -1.402368,0.69065 -2.288478,1.62455 -3.032889,3.19567 l -0.553455,1.16789 v 15.875 15.875 l 0.473873,1.01183 c 0.260776,0.55642 0.682039,1.28417 0.93586,1.61695 0.633,0.82991 2.154517,1.84453 3.194637,2.1301 1.943072,0.53349 4.072466,0.19971 5.647716,-0.88521 1.08889,-0.74995 1.67395,-1.46956 2.32647,-2.86184 l 0.47388,-1.01183 v -15.875 -15.875 l -0.55966,-1.18184 c -0.68681,-1.44976 -1.76873,-2.56211 -3.15381,-3.24218 -0.94699,-0.46491 -1.22034,-0.5147 -2.816884,-0.5147 z m 0.0041,10.31875 c 2.726314,0 3.182144,0.0417 3.774954,0.34417 1.26977,0.64779 1.25212,0.50465 1.25212,10.05107 0,9.37646 -0.002,9.3971 -1.09192,10.0614 -0.53154,0.32408 -0.88419,0.35605 -3.935154,0.35605 -3.050973,0 -3.403621,-0.032 -3.935161,-0.35605 -1.089616,-0.6643 -1.091923,-0.68494 -1.091923,-10.0614 0,-9.54642 -0.01766,-9.40328 1.25212,-10.05107 0.592817,-0.30248 1.048635,-0.34417 3.774964,-0.34417 z m 8.202074,3.88039 h 3.58376 c 4.08554,0 4.78279,0.13179 6.30298,1.19269 1.8851,1.31556 2.96916,3.68401 2.75177,6.01204 -0.20414,2.18609 -1.47854,4.0604 -3.50986,5.16196 l -1.10278,0.59789 -4.01319,0.0563 -4.01268,0.0558 v -6.5381 z"
         style="fill:#d53c31;fill-opacity:1"
         id="path26" /></g></g></svg>
