<?xml version="1.0" encoding="UTF-8" standalone="no"?>
<!-- Created with Inkscape (http://www.inkscape.org/) -->

<svg
   width="76.729164mm"
   height="76.729172mm"
   viewBox="0 0 76.729164 76.729172"
   version="1.1"
   id="svg1"
   xml:space="preserve"
   xmlns="http://www.w3.org/2000/svg"
   xmlns:svg="http://www.w3.org/2000/svg"><defs
     id="defs1" /><g
     id="layer1"><path
       d="m 34.560376,4.7625002 c -8.632108,0 -17.656896,4.9701511 -23.019267,9.4169978 C 6.1787384,18.626341 0.68581233,30.135565 1.0781813,37.32899 c 0.392369,7.193423 2.4850921,18.833832 10.9864107,26.288835 8.501319,7.455003 19.487699,8.370549 19.487699,8.370549 h 30.21211 c 0,0 3.139282,0.130754 4.708756,-1.307931 1.569474,-1.438685 1.830896,-2.877344 1.830896,-2.877344 V 53.677863 h 3.400309 c 0,0 4.577918,-0.392427 4.839498,-4.054533 C 76.805438,45.961224 70.004197,34.320839 65.818933,26.081098 61.633667,17.841359 52.478541,4.7625002 34.560376,4.7625002 Z m 1.906861,11.4871568 c 3.390309,0.0061 6.30014,0.709177 8.033101,1.984375 6.931845,5.100791 10.855607,7.193559 12.425081,16.479614 1.569474,9.286057 0.261483,26.288318 0.261483,26.288318 H 33.383187 c 0,0 -21.580078,-1.438624 -21.580078,-22.626526 0,-15.890926 14.493199,-22.144174 24.664128,-22.125781 z"
       style="fill:#211f45;fill-opacity:1;fill-rule:evenodd;stroke:none;stroke-width:0.232;stroke-linecap:round"
       id="path8" /><path
       d="M 34.560376,22.764505 A 16.003485,16.003485 0 0 0 18.556702,38.768179 16.003485,16.003485 0 0 0 34.560376,54.771337 16.003485,16.003485 0 0 0 50.564051,38.768179 16.003485,16.003485 0 0 0 34.560376,22.764505 Z m 0.261483,4.365108 A 11.246052,11.246052 0 0 1 46.068201,38.375438 11.246052,11.246052 0 0 1 34.821859,49.62178 11.246052,11.246052 0 0 1 23.576034,38.375438 11.246052,11.246052 0 0 1 34.821859,27.129613 Z"
       style="fill:#4d4d66;fill-opacity:1;fill-rule:evenodd;stroke:none;stroke-width:0.232;stroke-linecap:round"
       id="path9" /><path
       d="m 34.691118,32.620751 a 5.8855281,5.8855281 0 0 0 -5.885429,5.885429 5.8855281,5.8855281 0 0 0 5.885429,5.885945 5.8855281,5.8855281 0 0 0 5.885429,-5.885945 5.8855281,5.8855281 0 0 0 -5.885429,-5.885429 z"
       style="fill:#e61919;fill-opacity:1;fill-rule:evenodd;stroke:none;stroke-width:0.232;stroke-linecap:round"
       id="path10" /></g></svg>
