<?xml version="1.0" encoding="UTF-8" standalone="no"?>
<svg
   width="399"
   height="399"
   viewBox="0 0 399 399"
   fill="none"
   version="1.1"
   id="svg1"
   xmlns="http://www.w3.org/2000/svg"
   xmlns:svg="http://www.w3.org/2000/svg">
  <defs
     id="defs1" />
  <path
     d="M 199.63281,0.46484375 C 89.799013,0.46484375 0.625,89.625656 0.625,199.47266 c 0,109.847 89.043212,199.00781 199.00781,199.00781 109.964,0 199.00781,-89.02981 199.00781,-199.00781 0,-109.977904 -89.04381,-199.00781625 -199.00781,-199.00781625 z M 120.91992,120.91797 h 113.49219 l -17.25781,27.625 H 103.6582 Z m 135.98242,0 86.16797,137.99414 h -32.55859 l 0.13086,-0.13086 -17.25977,-27.49414 h -50.33984 l 17.25976,-27.625 h 15.95118 L 257.0332,172.89453 203.42383,258.78125 H 60.248047 L 94.767578,203.66211 H 69.402344 l 17.257812,-27.625 H 197.2793 l -17.25977,27.625 h -52.82422 l -17.25976,27.625 h 78.06054 z"
     style="clip-rule:evenodd;fill:#255af6;fill-rule:evenodd"
     id="path4" />
  <path
     d="m 120.91992,120.91797 -17.26172,27.625 h 113.4961 l 17.25781,-27.625 z"
     style="clip-rule:evenodd;fill:#ffffff;fill-rule:evenodd"
     id="path3" />
  <path
     d="m 256.90234,120.91797 -68.90625,110.36914 h -78.06054 l 17.25976,-27.625 h 52.82422 l 17.25977,-27.625 H 86.660156 l -17.257812,27.625 H 94.767578 L 60.248047,258.78125 H 203.42383 l 53.60937,-85.88672 19.22071,30.76758 h -15.95118 l -17.25976,27.625 h 50.33984 l 17.25977,27.49414 -0.13086,0.13086 h 32.55859 z"
     style="clip-rule:evenodd;fill:#ffffff;fill-rule:evenodd"
     id="path2" />
</svg>
