<?xml version="1.0" encoding="UTF-8" standalone="no"?>
<!-- Created with Inkscape (http://www.inkscape.org/) -->

<svg
   width="89.958328mm"
   height="83.722107mm"
   viewBox="0 0 89.958328 83.722107"
   version="1.1"
   id="svg1"
   xml:space="preserve"
   xmlns:xlink="http://www.w3.org/1999/xlink"
   xmlns="http://www.w3.org/2000/svg"
   xmlns:svg="http://www.w3.org/2000/svg"><defs
     id="defs1"><linearGradient
       id="linearGradient5"><stop
         style="stop-color:#64bbc3;stop-opacity:1;"
         offset="0"
         id="stop5" /><stop
         style="stop-color:#59a5c2;stop-opacity:1;"
         offset="1"
         id="stop6" /></linearGradient><radialGradient
       xlink:href="#linearGradient5"
       id="radialGradient6"
       cx="30.844013"
       cy="126.13274"
       fx="30.844013"
       fy="126.13274"
       r="83.079803"
       gradientTransform="matrix(1,0,0,0.76349967,53.921908,38.035358)"
       gradientUnits="userSpaceOnUse" /></defs><g
     id="layer1"
     transform="translate(-52.916662,-94.871654)"><path
       style="fill:url(#radialGradient6)"
       d="m 92.403122,177.66331 c -5.013153,-0.70996 -10.800669,-2.75364 -15.087474,-5.32768 -16.839834,-10.11157 -24.39987,-30.53422 -18.206289,-49.18241 3.698879,-11.13692 11.384416,-19.99945 21.553595,-24.854403 8.903759,-4.25081 21.591016,-4.578112 31.411826,-0.810354 6.73355,2.583327 14.05527,8.138827 18.4584,14.005657 1.8007,2.3993 4.40153,7.19748 5.52705,10.19668 2.0483,5.45813 3.04727,12.35723 2.52958,17.46971 -1.07663,10.63225 -4.79434,19.05017 -11.47803,25.98941 -6.23347,6.47181 -13.71893,10.5884 -22.03103,12.11586 -2.69991,0.49615 -10.298784,0.73442 -12.677628,0.39753 z m 12.283498,-3.83513 c 2.12567,-0.41969 5.71028,-1.51741 7.78259,-2.38328 l 0.97937,-0.40921 v -10.97665 -10.97666 h -1.32292 c -2.09157,0 -3.00392,-1.28908 -1.88784,-2.66738 0.47904,-0.59159 0.60427,-0.60727 4.29948,-0.53824 4.26717,0.0797 4.73211,0.25425 4.73211,1.77642 0,1.01319 -0.76785,1.69378 -1.91095,1.69378 h -0.73488 v 9.94786 9.94786 l 0.85989,-0.54403 c 3.56921,-2.25813 7.84622,-6.29921 10.32179,-9.7524 2.9539,-4.12044 5.09329,-8.829 6.46066,-14.21922 0.56762,-2.23753 0.6939,-3.44832 0.80132,-7.68319 0.11678,-4.60321 0.0725,-5.29479 -0.52512,-8.20208 -2.7822,-13.53486 -12.34101,-24.39785 -25.24328,-28.68745 -3.79401,-1.261382 -6.01582,-1.637535 -10.534637,-1.78351 -6.727216,-0.217315 -11.717221,0.818448 -17.371782,3.60583 -3.970164,1.95707 -6.18667,3.56246 -9.491249,6.87444 -3.190844,3.19798 -5.195999,5.94224 -7.076809,9.68532 -3.184876,6.33836 -4.335006,11.11231 -4.33129,17.97828 0.0056,10.32338 3.885135,19.62082 11.267724,27.00341 5.41292,5.41292 11.294519,8.57958 18.850015,10.14887 1.428427,0.29669 3.01386,0.59018 3.523182,0.65222 1.914423,0.23316 8.417346,-0.0694 10.552626,-0.49099 z m -4.08698,-2.27304 -0.777102,-0.81058 -0.132294,-6.04816 c -0.131309,-6.00325 -0.137202,-6.05339 -0.79375,-6.75434 -1.197946,-1.27895 -1.388127,-1.31156 -8.598958,-1.47446 -8.186464,-0.18494 -9.004323,-0.36732 -11.127146,-2.48133 -2.04809,-2.03959 -2.10202,-2.37244 -2.10202,-12.97368 0,-7.85223 0.06059,-9.21446 0.476602,-10.71563 1.019336,-3.67822 3.575522,-5.69604 7.196315,-5.68068 4.259541,0.0181 5.820382,2.04886 8.248802,10.73239 1.532747,5.4808 1.969987,5.79621 8.034931,5.79621 h 3.9976 l 0.7734,0.7734 c 0.98679,0.9868 1.03428,2.16477 0.12396,3.07509 l -0.64943,0.64943 h -6.000603 c -3.95766,0 -6.371367,-0.11011 -7.089631,-0.32341 -1.54333,-0.45832 -3.343926,-2.35155 -3.970259,-4.17451 -0.872431,-2.53924 -1.025638,-2.24176 -0.885715,1.71979 0.216503,6.12976 0.09462,6.03646 8.132569,6.22521 5.299529,0.12444 6.083849,0.20038 7.143749,0.69166 1.41271,0.65482 2.18673,1.44239 2.8268,2.87633 0.42208,0.94558 0.46482,1.87607 0.41301,8.99222 -0.0318,4.36562 -0.0594,8.27033 -0.0613,8.67713 -0.002,0.42891 -0.27634,1.01246 -0.65294,1.38906 -0.54171,0.54171 -0.90653,0.64943 -2.19946,0.64943 -1.3839,0 -1.63331,-0.0869 -2.32713,-0.81057 z m -20.319634,-9.13391 c -4.819852,-1.16669 -8.473494,-4.57318 -9.669712,-9.01559 -0.161036,-0.59804 -0.771221,-5.05988 -1.355966,-9.9152 -0.584745,-4.85532 -1.123309,-9.02253 -1.196808,-9.26047 -0.541958,-1.75449 2.715126,-3.18067 3.578727,-1.56701 0.14943,0.27921 0.633564,3.76038 1.075853,7.73593 1.434228,12.89168 1.678587,13.86748 3.997235,15.96224 2.366705,2.13818 4.856839,2.76425 11.020541,2.77082 4.221995,0.004 4.324988,0.0181 4.960937,0.65403 0.793388,0.79339 0.821195,1.44209 0.101061,2.35759 l -0.54837,0.69714 -5.206317,-0.022 c -3.520172,-0.0149 -5.708588,-0.14362 -6.757181,-0.39744 z m 32.639404,-24.98966 c -8.39048,-1.49036 -12.996422,-10.66184 -9.24557,-18.41006 0.97442,-2.01289 3.47971,-4.46817 5.63883,-5.52628 5.02258,-2.4614 10.55392,-1.60311 14.57929,2.26225 7.22114,6.93409 3.50071,19.46038 -6.40325,21.55907 -1.95746,0.4148 -2.76691,0.43517 -4.5693,0.11502 z m 5.45954,-3.04994 c 2.7757,-0.90134 5.36219,-3.60768 6.30125,-6.59321 0.73915,-2.34994 0.50612,-5.37469 -0.5847,-7.58957 -3.28021,-6.66034 -12.92733,-7.40046 -17.2775,-1.32551 -1.4516,2.02713 -1.92582,3.79375 -1.78111,6.63512 0.0922,1.80986 0.26406,2.56383 0.84074,3.68789 2.46368,4.80215 7.38943,6.84525 12.50132,5.18528 z m -6.05485,-8.99953 c -1.63927,-1.86858 -1.83623,-2.5075 -0.96181,-3.11996 0.70687,-0.49511 1.17315,-0.32977 2.43308,0.86278 l 1.00826,0.95434 2.29904,-2.45695 c 2.47425,-2.64419 3.14118,-2.95107 3.89924,-1.79413 0.59069,0.9015 0.30542,1.35514 -2.88119,4.58181 -3.38616,3.42872 -3.60874,3.46605 -5.79662,0.97211 z m -25.242906,-3.03431 c -3.489797,-0.68815 -5.647199,-3.41282 -5.647199,-7.13207 0,-4.28004 3.090261,-7.4611 7.271255,-7.48491 4.090474,-0.0233 7.094063,3.03126 7.094063,7.21443 0,4.65623 -4.267888,8.28009 -8.718119,7.40255 z"
       id="path1" /></g></svg>
