<?xml version="1.0" encoding="UTF-8" standalone="no"?>
<!-- Created with Inkscape (http://www.inkscape.org/) -->

<svg
   version="1.1"
   id="svg1"
   width="340"
   height="340"
   viewBox="0 0 340 340"
   xmlns:xlink="http://www.w3.org/1999/xlink"
   xmlns="http://www.w3.org/2000/svg"
   xmlns:svg="http://www.w3.org/2000/svg">
  <defs
     id="defs1">
    <linearGradient
       id="linearGradient8">
      <stop
         style="stop-color:#ea4235;stop-opacity:1;"
         offset="0.13947369"
         id="stop8" />
      <stop
         style="stop-color:#f7cd45;stop-opacity:1;"
         offset="0.28421053"
         id="stop11" />
      <stop
         style="stop-color:#ef6c32;stop-opacity:1;"
         offset="0.40263158"
         id="stop10" />
      <stop
         style="stop-color:#ea3323;stop-opacity:1;"
         offset="0.75789475"
         id="stop12" />
      <stop
         style="stop-color:#f7ce46;stop-opacity:1;"
         offset="1"
         id="stop9" />
    </linearGradient>
    <linearGradient
       id="linearGradient6">
      <stop
         style="stop-color:#f7ce46;stop-opacity:1;"
         offset="0.24736841"
         id="stop7" />
      <stop
         style="stop-color:#f2a43a;stop-opacity:1;"
         offset="0.44736841"
         id="stop13" />
      <stop
         style="stop-color:#dd230c;stop-opacity:1;"
         offset="0.87631577"
         id="stop6" />
    </linearGradient>
    <linearGradient
       xlink:href="#linearGradient6"
       id="linearGradient7"
       x1="570.76575"
       y1="-3.0737762"
       x2="570.76575"
       y2="320.41553"
       gradientUnits="userSpaceOnUse" />
    <linearGradient
       xlink:href="#linearGradient8"
       id="linearGradient9"
       x1="408.70578"
       y1="197.05019"
       x2="732.65796"
       y2="197.05019"
       gradientUnits="userSpaceOnUse" />
    <linearGradient
       xlink:href="#linearGradient8"
       id="linearGradient13"
       gradientUnits="userSpaceOnUse"
       x1="408.70578"
       y1="197.05019"
       x2="732.65796"
       y2="197.05019" />
    <linearGradient
       xlink:href="#linearGradient8"
       id="linearGradient14"
       gradientUnits="userSpaceOnUse"
       x1="408.70578"
       y1="197.05019"
       x2="732.65796"
       y2="197.05019" />
    <linearGradient
       xlink:href="#linearGradient6"
       id="linearGradient15"
       gradientUnits="userSpaceOnUse"
       x1="570.76575"
       y1="-3.0737762"
       x2="570.76575"
       y2="320.41553" />
    <linearGradient
       xlink:href="#linearGradient6"
       id="linearGradient16"
       gradientUnits="userSpaceOnUse"
       x1="570.76575"
       y1="-3.0737762"
       x2="570.76575"
       y2="320.41553" />
  </defs>
  <g
     id="g1">
    <g
       id="g7"
       style="fill:url(#linearGradient9)"
       transform="translate(-401.98259,-0.72299026)">
      <path
         d="m 704.73437,95.902344 c -3.40628,0.927541 -6.95012,1.788243 -10.71875,2.533203 -71.13865,14.062293 -43.84171,93.474163 -45.49609,101.746093 -1.65439,8.27194 -55.61753,88.10594 -75.47018,88.10594 -19.62141,0 -80.06342,-87.8557 -81.28958,-89.92625 -0.76503,11.19772 1.86229,24.16648 7.52148,37.07031 4.58927,10.46427 15.03728,26.83328 22.4707,35.20508 9.22966,10.3948 11.94965,13.25875 16.92969,17.82617 9.8284,9.01405 16.81422,14.17002 24.98633,18.44141 4.86861,2.54472 9.40272,2.40043 14.88867,-0.47657 21.29847,-11.16957 48.18102,-40.41184 60.99023,-66.34375 7.47037,-15.12356 9.76616,-24.32305 9.78321,-39.21679 l 0.01,-10.11133 2.5,-1.96484 c 5.42459,-4.26303 9.76766,-5.57724 24.51953,-7.42579 5.87646,-0.73637 12.65103,-1.94703 15.05469,-2.68945 10.32057,-3.18769 14.53067,-8.82997 14.57617,-19.53125 0.0177,-4.16117 0.0486,-4.1324 -3.23242,-3.19141 -2.94976,0.84598 -21.12178,2.90458 -22.22461,2.51758 -0.47201,-0.16563 0.94063,-0.66424 3.14063,-1.10742 7.14535,-1.4394 21.22572,-5.15215 25.66601,-6.76758 5.52217,-2.00903 11.15675,-6.19406 12.94336,-9.61718 1.14519,-2.19416 1.39063,-3.86796 1.39063,-9.44532 0,-3.72814 -0.22093,-7.00058 -0.49219,-7.27148 -0.27126,-0.2709 -1.62126,0.008 -3,0.61914 -2.87875,1.27572 -11.10335,3.43664 -15.50781,4.07617 -1.65,0.23958 -6.67226,1.04459 -11.16016,1.78711 -4.48789,0.74251 -8.50553,1.23319 -8.92969,1.0918 -0.42417,-0.14139 2.9468,-1.10056 7.49219,-2.13282 22.48895,-5.10726 34.06748,-11.15528 38.58008,-20.15039 1.98946,-3.96564 2.59405,-12.876719 1.36719,-20.150386 -0.36293,-2.151683 -0.65302,-3.341869 -0.98047,-3.996094 -1.30077,0.715853 -2.51385,1.458036 -3.90235,2.144531 -2.66095,1.989001 -7.06102,4.711732 -10.85156,6.619141 -4.94819,2.48994 -18.10594,7.311038 -19.07422,6.988278 -0.31014,-0.10338 1.16647,-1.203999 3.28125,-2.445309 1.37384,-0.806398 2.81439,-1.842627 4.23828,-2.810547 z"
         style="fill:url(#linearGradient13)"
         id="path4" />
      <path
         d="m 443.18164,100.00781 c 1.42912,0.98447 2.45627,1.75765 2.26953,1.82032 -0.30146,0.10115 -2.32458,-0.39513 -4.49609,-1.10352 -13.32794,-4.34783 -20.75247,-7.813505 -27.36328,-12.769532 l -3.41797,-2.560547 -0.75,3.736328 c -1.05536,5.255037 -0.93113,13.325571 0.26562,17.355471 1.26733,4.26757 6.21448,9.8553 11.64844,13.15625 6.05503,3.67824 12.217,5.95203 24.62695,9.08789 6.29372,1.59035 11.09708,3.00736 10.67383,3.14844 -0.79462,0.26487 -9.94453,-1.04137 -23.27344,-3.32227 -4.20352,-0.71932 -9.36632,-2.00469 -11.47265,-2.85547 l -3.83008,-1.54687 -0.43945,2.93164 c -0.67656,4.5116 -0.0261,10.34947 1.47656,13.25976 1.82251,3.52972 7.40818,7.59211 13.91797,10.12305 2.93843,1.14243 10.58843,3.37573 17,4.96094 7.91988,1.95813 10.97152,2.94745 9.51953,3.08789 -2.92897,0.28329 -20.2353,-1.66689 -22.5293,-2.53906 l -1.86133,-0.70704 0.36719,5.34375 c 0.45474,6.63439 2.29417,10.71774 6.08203,13.49805 5.366,3.93868 6.57593,4.27807 30.12696,8.46484 8.47879,1.50731 13.38611,3.49787 17.54296,7.11524 l 2.92383,2.54297 -0.23437,3.30469 c 1.71166,-5.86056 13.95584,-48.85391 9.32422,-68.15235 -4.96316,-20.67984 -14.89032,-14.06279 -56.25,-26.4707 z"
         style="fill:url(#linearGradient14)"
         id="path3" />
    </g>
    <g
       id="g6"
       style="fill:url(#linearGradient7)"
       transform="translate(-401.98259,-0.72299026)">
      <path
         d="m 578.91797,90.148437 c -2.54913,-0.143958 -5.58877,-0.0868 -10.57813,0.08789 -12.23936,0.42852 -13.15029,0.516588 -17.65429,1.734375 -6.83633,1.84839 -11.34571,5.395689 -11.34571,8.923828 0,1.54565 3.25694,5.01626 6.03516,6.4336 4.84271,2.47056 24.15304,4.59252 32.63281,3.58593 1.28333,-0.15234 5.18269,-0.76684 8.66602,-1.36523 3.48334,-0.59838 6.48268,-1.09957 6.66601,-1.11328 0.91491,-0.0684 5.76946,-4.06914 6.47657,-5.33789 2.88468,-5.175964 -1.94948,-9.491349 -13.25977,-11.833989 -3.0299,-0.627564 -5.08955,-0.971276 -7.63867,-1.115234 z m -10.28516,6.71875 c 7.92489,-0.123527 16.05507,0.59205 21.44727,2.19336 5.37244,1.595443 3.98125,2.984263 -4.52539,4.521483 -5.80429,1.04887 -22.89545,1.30136 -27.54688,0.40625 -1.65,-0.31752 -4.02364,-0.77578 -5.27344,-1.01758 -4.90151,-0.94831 -6.73844,-2.33333 -4.32421,-3.259763 4.57794,-1.75672 12.29776,-2.720222 20.22265,-2.84375 z"
         style="fill:url(#linearGradient15)"
         id="path6" />
      <path
         d="m 723.24609,28.650391 c -0.23525,-0.0034 -0.60311,0.695113 -0.81836,1.552734 -0.82957,3.305268 -7.53008,12.347303 -13.66992,18.445312 -5.8075,5.76793 -18.55862,15.994569 -23.82031,19.105469 -1.13845,0.6731 -3.7687,2.34961 -5.8457,3.72461 -2.077,1.375 -3.97193,2.5 -4.21094,2.5 -0.23901,0 -0.9094,0.412628 -1.48828,0.917968 -2.24869,1.96302 -20.75676,12.149035 -43.47266,23.925782 -23.71442,12.294414 -28.31797,14.955964 -31.00195,17.917964 -3.50805,3.87144 -2.81746,6.3209 4.90039,17.36719 12.70995,18.1913 17.75463,31.83889 17.69531,47.8711 -0.0198,5.35669 -0.35285,7.91234 -1.41601,10.88671 -3.91333,10.94827 -13.32794,17.19615 -24.38282,16.18164 -8.80498,-0.80804 -13.68074,-5.58142 -13.68945,-13.40234 -0.006,-5.24917 2.15258,-9.87943 6.94922,-14.9082 2.01473,-2.11223 4.0943,-4.87192 4.62109,-6.13281 2.61149,-6.25073 2.99834,-21.43883 0.73633,-28.90235 -2.2255,-7.34307 -7.89085,-13.66533 -14.38086,-16.04883 -5.189,-1.9057 -14.19515,-1.75957 -19.57031,0.31836 -6.94343,2.68419 -11.68366,8.65316 -14.01172,17.64649 -1.99432,7.70411 -0.93498,22.73857 2.00195,28.41797 0.61807,1.19522 2.63324,3.6972 4.47852,5.55859 4.74796,4.78942 6.71314,9.32365 6.37109,14.69531 -0.36053,5.66214 -2.51872,8.92447 -7.52343,11.37305 -3.35503,1.64147 -4.24219,1.78741 -9.27149,1.52344 -6.82845,-0.3584 -11.6212,-2.471 -15.73828,-6.9375 -5.89642,-6.39686 -8.11454,-14.8104 -6.7207,-25.49219 1.88876,-14.47468 6.62463,-27.02826 14.44922,-38.29102 8.52601,-12.27238 9.13872,-13.34329 9.44335,-16.51367 0.26023,-2.70825 0.0484,-3.37459 -1.71484,-5.38281 -2.69851,-3.07344 -10.6521,-7.71627 -29.80469,-17.402344 -54.49905,-27.561897 -83.63217,-48.58249 -92.10156,-66.451172 -1.0438,-2.202197 -2.04714,-4.012054 -2.23047,-4.023438 -0.80268,-0.04984 -5.4439,8.909595 -7.09765,13.701172 -2.35887,6.83455 -2.52649,16.295058 -0.40235,22.773438 3.8503,11.74295 14.24166,23.251172 29.66211,32.849609 1.22022,0.759519 2.1337,1.387351 3.01172,1.992185 l 1.84766,0.91016 c 41.35968,12.40791 51.28684,5.79086 56.25,26.4707 4.63162,19.29844 -7.61256,62.29179 -9.32422,68.15235 l -0.19141,2.67578 c -0.003,0.0473 -6.7e-4,0.0972 -0.004,0.14453 1.22616,2.07055 58.84133,95.98376 78.46274,95.98376 19.85265,0 76.64263,-85.89151 78.29702,-94.16345 1.65438,-8.27193 -25.64256,-87.6838 45.49609,-101.746093 3.76863,-0.74496 7.31247,-1.605662 10.71875,-2.533203 7.93427,-5.393463 16.17388,-12.771921 19.82618,-18.107422 10.04882,-14.67992 10.55991,-29.003591 1.59765,-44.767578 -1.3664,-2.403393 -2.67686,-4.373559 -2.91211,-4.376953 z"
         style="fill:url(#linearGradient16)"
         id="path5" />
    </g>
  </g>
</svg>
