<?xml version="1.0" encoding="UTF-8" standalone="no"?>
<!-- Created with Inkscape (http://www.inkscape.org/) -->

<svg
   width="92.604164mm"
   height="92.604172mm"
   viewBox="0 0 92.604164 92.604172"
   version="1.1"
   id="svg1"
   xml:space="preserve"
   xmlns:xlink="http://www.w3.org/1999/xlink"
   xmlns="http://www.w3.org/2000/svg"
   xmlns:svg="http://www.w3.org/2000/svg"><defs
     id="defs1"><linearGradient
       id="linearGradient7"><stop
         style="stop-color:#e14c20;stop-opacity:1;"
         offset="0"
         id="stop7" /><stop
         style="stop-color:#fe6f18;stop-opacity:1;"
         offset="1"
         id="stop11" /></linearGradient><linearGradient
       id="linearGradient10"><stop
         style="stop-color:#f54f2d;stop-opacity:1;"
         offset="0"
         id="stop10" /><stop
         style="stop-color:#ffc708;stop-opacity:1;"
         offset="1"
         id="stop12" /></linearGradient><linearGradient
       id="linearGradient8"><stop
         style="stop-color:#fd5b1b;stop-opacity:1;"
         offset="0.19217792"
         id="stop8" /><stop
         style="stop-color:#ff9911;stop-opacity:1;"
         offset="0.86733407"
         id="stop9" /></linearGradient><linearGradient
       id="linearGradient3"><stop
         style="stop-color:#1c9192;stop-opacity:1;"
         offset="0.05660544"
         id="stop3" /><stop
         style="stop-color:#36c5b9;stop-opacity:1;"
         offset="0.85791343"
         id="stop4" /></linearGradient><linearGradient
       xlink:href="#linearGradient3"
       id="linearGradient4"
       x1="81.796173"
       y1="234.72543"
       x2="138.96619"
       y2="234.72543"
       gradientUnits="userSpaceOnUse"
       gradientTransform="translate(-39.440118,-166.03474)" /><linearGradient
       xlink:href="#linearGradient8"
       id="linearGradient9"
       x1="93.396881"
       y1="271.70615"
       x2="161.35599"
       y2="271.70615"
       gradientUnits="userSpaceOnUse"
       gradientTransform="translate(-39.440118,-166.03474)" /><linearGradient
       xlink:href="#linearGradient10"
       id="linearGradient11"
       x1="101.80506"
       y1="283.06604"
       x2="152.08958"
       y2="213.85533"
       gradientUnits="userSpaceOnUse"
       gradientTransform="translate(-39.440118,-166.03474)" /><linearGradient
       xlink:href="#linearGradient7"
       id="linearGradient12"
       x1="63.678516"
       y1="122.21074"
       x2="88.342178"
       y2="85.645355"
       gradientUnits="userSpaceOnUse" /></defs><g
     id="layer1"
     transform="translate(-39.687501,-35.718751)"><path
       d="m 121.86336,84.496134 c -0.0303,0.0011 -0.81969,0.576971 -1.75545,1.281059 -2.11635,1.5924 -7.03912,4.866682 -11.87111,7.895642 l -3.67677,2.304769 -0.0574,1.446424 c -0.0404,1.02003 -0.10626,15.707232 -0.0765,17.038232 0.002,0.10141 0.6635,-0.29144 4.24161,-2.51871 1.34801,-0.8391 4.77585,-2.92144 7.61762,-4.62762 2.84176,-1.70618 5.27113,-3.1959 5.39864,-3.31039 0.21675,-0.19462 0.23202,-0.83527 0.23202,-9.858832 0,-5.305956 -0.0239,-9.647418 -0.0527,-9.650574 z m -20.10988,13.130465 c -0.0165,6e-4 -0.0344,0.0043 -0.0537,0.0093 -0.13965,0.0365 -2.42991,1.337283 -5.0891,2.890261 -2.6592,1.55298 -6.205779,3.61076 -7.881689,4.57285 -4.56072,2.61817 -5.43489,3.17208 -5.41259,3.42977 0.0107,0.12342 0.0625,4.20064 0.115239,9.06094 0.0603,5.56153 0.145327,8.89833 0.228927,9.00255 0.0731,0.0911 0.222035,0.16588 0.331245,0.16588 0.10921,0 1.189734,-0.58795 2.401404,-1.30638 1.21167,-0.71843 3.663553,-2.15537 5.448763,-3.19308 1.78521,-1.03771 4.399842,-2.58096 5.809982,-3.42977 1.41014,-0.8488 2.912369,-1.74104 3.338299,-1.98231 l 0.77463,-0.43821 0.006,-4.26486 c 0.003,-2.34546 0.0459,-6.58395 0.0946,-9.41906 0.0797,-4.643723 0.0828,-5.104983 -0.11162,-5.097883 z m -13.674102,5.109761 c -3.884773,0.3793 -7.435394,0.60789 -10.419002,0.94207 1.327953,0.809 2.611323,1.58832 3.463871,2.10323 l 0.741557,0.44803 z M 73.89058,104.2386 c -2.600942,0.52751 -6.055041,1.17654 -8.617045,1.80764 0.0085,1.12836 0.01414,2.41408 0.01602,3.77238 l 0.01034,7.94525 1.182357,0.67386 c 1.5909,0.90684 12.412187,7.25525 13.462227,7.89771 l 0.835608,0.51108 0.132292,-9.08627 0.132292,-9.08678 -0.452686,-0.31781 c -0.59128,-0.41521 -2.46899,-1.56891 -6.7014,-4.11706 z m -10.932666,2.46755 c -2.314181,0.81404 -8.898165,4.05556 -8.898165,4.05556 0.331757,0.28677 8.667585,5.53038 8.789645,5.52938 0.05215,-5.5e-4 0.103102,-5.68246 0.10852,-9.58494 z"
       style="display:inline;fill:url(#linearGradient9)"
       id="path7" /><path
       d="m 82.077012,35.3447 c -0.56809,0 -1.36557,0.40639 -5.33817,2.71921 -1.78521,1.03933 -3.93126,2.26319 -4.76922,2.71973 -1.50622,0.82062 -6.33922,3.65024 -6.51743,3.81579 -0.0507,0.0471 1.64811,1.08342 3.77548,2.30322 2.12737,1.21979 5.83523,3.40565 8.2398,4.85758 2.40457,1.45194 4.42322,2.64501 4.48552,2.65101 0.0623,0.006 0.87926,-0.46328 1.81539,-1.04335 0.93613,-0.58007 3.74652,-2.24134 6.24561,-3.69177 2.49909,-1.45044 5.37846,-3.14084 6.39858,-3.75584 1.02012,-0.61501 1.96969,-1.1613 2.10995,-1.2144 0.21474,-0.0813 0.15203,-0.15102 -0.39739,-0.43976 -0.35886,-0.18859 -1.21877,-0.6742 -1.911,-1.07952 -0.69222,-0.40532 -4.05642,-2.33587 -7.47603,-4.28966 -4.73064,-2.70283 -6.32359,-3.55224 -6.66109,-3.55224 z m -19.61069,11.26133 c -0.1299,0 -1.10048,0.51351 -2.156456,1.14153 -1.055975,0.62801 -4.125775,2.39278 -6.821806,3.92121 -2.696032,1.52842 -6.204792,3.52758 -7.797457,4.44314 l -2.895947,1.66501 0.51108,0.31368 c 0.281082,0.17269 2.776501,1.60422 5.545398,3.18068 2.768897,1.57646 5.839152,3.33158 6.822839,3.90054 0.983687,0.56895 1.835321,1.03618 1.892391,1.03818 0.17737,0.006 1.410752,-0.64823 3.293338,-1.74666 l 1.80764,-1.05472 0.078,-2.67167 c 0.1835,-6.27853 0.23375,-13.40845 0.0966,-13.7666 -0.08,-0.20904 -0.24018,-0.36432 -0.37569,-0.36432 z m 37.05975,0.63148 -0.30747,0.0584 c -0.16905,0.0323 -2.0615,1.1046 -4.20594,2.38228 -4.25785,2.53688 -9.85434,5.81634 -10.95179,6.4177 l -0.69402,0.37982 -0.002,2.59519 c -0.001,1.42723 0.0377,4.39072 0.0858,6.58564 l 0.0878,3.99098 4.18527,-2.11099 c 4.17481,-2.1056 7.17846,-3.80703 10.203,-5.77949 l 1.59732,-1.0418 0.001,-6.73912 z m -34.11936,0.34779 c -0.002,4e-5 -0.003,3.3e-4 -0.005,5.1e-4 -0.1777,0.0197 -0.18862,0.88869 -0.18862,7.9375 v 8.01812 l 3.12436,1.7663 c 1.71848,0.97164 4.83383,2.78915 6.92258,4.03903 2.08876,1.24988 3.8407,2.27865 3.8933,2.28565 0.0526,0.007 0.41871,-0.13012 0.8139,-0.30489 l 0.71882,-0.31781 0.078,-1.50379 c 0.043,-0.82713 0.0939,-4.05715 0.11317,-7.17785 l 0.0351,-5.67408 -4.43797,-2.61948 c -7.76633,-4.58318 -10.7911,-6.34955 -11.0293,-6.44095 -0.0135,-0.005 -0.0262,-0.009 -0.0382,-0.008 z M 42.361607,60.41397 c -0.01488,0.0201 0.0012,3.94694 0.03566,8.7266 l 0.06253,8.69042 1.539958,0.84181 c 0.846851,0.46305 3.500843,1.96277 5.897831,3.33262 2.396988,1.36986 4.41141,2.4908 4.47673,2.4908 0.06532,0 0.583423,-0.37296 1.151351,-0.82837 l 1.032495,-0.82786 0.08785,-2.64945 c 0.04815,-1.45732 0.08766,-4.65115 0.08785,-7.09724 V 68.64603 L 52.395108,66.14747 C 50.008755,64.77348 46.781066,62.91323 45.22242,62.01336 43.663775,61.11348 42.376492,60.39387 42.361612,60.41397 Z m 21.925275,5.28133 -2.61741,1.42369 -2.616894,1.42317 0.0036,1.08779 c 0.0019,0.59824 0.01677,3.40657 0.03307,6.24044 l 0.02946,5.15214 1.424202,-0.86041 c 2.124782,-1.28438 6.464782,-3.37386 11.227732,-5.40484 2.3317,-0.99426 4.28339,-1.84978 4.33669,-1.90118 0.0896,-0.0864 -1.9743,-1.34589 -9.07232,-5.53764 z M 42.511469,80.57708 c -0.113434,-0.0435 -0.147402,2.5914 -0.133842,10.41797 l 0.01809,10.47636 0.311092,0.33073 c 0.365066,0.3886 0.257899,0.57897 1.014925,-1.80557 1.415066,-4.45727 4.108331,-8.89166 7.611938,-12.53205 1.10849,-1.15176 1.146256,-1.21047 0.861963,-1.34049 -0.163527,-0.0748 -2.375292,-1.34014 -4.914945,-2.81223 -2.539653,-1.47209 -4.685708,-2.70272 -4.769218,-2.73472 z"
       style="fill:url(#linearGradient4)"
       id="path2" /><path
       d="m 116.30231,38.39154 -5.2e-4,5.2e-4 -5.1e-4,5.2e-4 h -5.2e-4 l -5.2e-4,5.1e-4 v 5.2e-4 h -5.1e-4 -5.2e-4 v 5.2e-4 h -5.2e-4 v 5.1e-4 5.2e-4 l -5.1e-4,5.2e-4 c -5e-5,1.7e-4 4e-5,0.001 0,0.002 -0.009,0.0412 0.13409,0.29795 0.34106,0.60462 0.22616,0.33511 0.5634,1.06514 0.74931,1.62264 0.29578,0.88682 0.33872,1.24584 0.34572,2.86856 0.006,1.54634 -0.042,2.0262 -0.29094,2.88612 -1.20235,4.15383 -5.36577,9.16447 -11.16056,13.43226 -6.18956,4.55853 -17.378238,10.67019 -26.761678,14.61823 -13.29636,5.59437 -16.45757,7.13653 -20.321753,9.91206 -1.314774,0.94437 -3.483159,2.79158 -5.174361,4.408 -4.242101,4.05453 -7.138238,9.02277 -8.55245,14.67248 -0.749034,2.99237 -0.82679,3.73848 -0.676961,6.48746 0.07419,1.36115 0.228565,3.01117 0.343132,3.66696 0.969021,5.54676 3.671883,9.47082 8.096146,11.75536 1.062454,0.54862 2.503662,1.17756 2.570386,1.12499 v -5.1e-4 l 5.17e-4,-5.2e-4 5.17e-4,-5.2e-4 v -5.1e-4 c 1.35e-4,-4.5e-4 4.13e-4,-0.002 5.16e-4,-0.003 0,-0.0204 -0.298257,-0.26432 -0.662491,-0.54209 -1.351378,-1.03058 -2.754516,-3.2711 -3.244247,-5.18004 -0.651423,-2.53921 -0.222668,-5.97688 1.103809,-8.84804 0.509033,-1.1018 0.688482,-1.35384 0.952913,-1.19631 0.762766,-0.87409 1.955402,-2.13473 3.481958,-3.49281 1.526499,-1.35801 3.387069,-2.81393 5.486999,-4.07882 v -5.2e-4 h 5.2e-4 c -0.007,-0.18066 0.26547,-0.39143 1.06764,-0.82786 0.60472,-0.32901 1.14159,-0.55608 1.19269,-0.50488 l 5.2e-4,5.2e-4 v 5.2e-4 c 0.004,0.007 0.009,0.0394 0.0129,0.0935 0.23628,-0.11498 0.47505,-0.22661 0.71572,-0.33486 0.95006,-0.43467 2.10306,-0.93325 2.1022,-0.94155 v -5.1e-4 -5.2e-4 l 5.2e-4,-5.2e-4 v -5.1e-4 h 5.1e-4 v -5.2e-4 l 5.2e-4,-5.2e-4 c 0.16886,-0.14695 1.686868,-0.26418 3.967358,-0.39542 7.27597,-0.41874 22.315462,-0.98052 26.076282,-3.10617 5.484378,-3.09981 10.070568,-5.83709 15.614558,-9.44387 0.008,-0.005 0.0161,-0.0107 0.0243,-0.016 5.53237,-3.70048 10.04396,-8.02316 12.88604,-12.34602 1.51826,-2.30935 2.66379,-5.19012 3.34501,-8.41292 0.30016,-1.42001 0.34975,-1.97706 0.34882,-3.90829 -0.001,-2.48282 -0.23093,-4.45319 -0.74362,-6.37945 -0.56636,-2.12786 -1.8038,-5.17241 -2.20245,-5.41879 -0.24794,-0.15324 -0.34889,0.17443 -0.44649,1.44694 -0.48111,6.27189 -3.177,11.00086 -9.08058,15.92977 -3.68581,3.07728 -7.25488,5.3017 -11.79101,7.34839 -4.86388,2.19453 -13.615708,4.54448 -22.389328,6.01204 -1.5666,0.26205 -3.0272,0.50737 -3.2458,0.54467 -0.21854,0.0373 1.45053,-0.55277 3.70933,-1.31103 12.61947,-4.23627 20.244758,-7.75228 26.507948,-12.22355 5.25141,-3.74902 8.74352,-7.79529 10.57093,-12.24886 0.52463,-1.27857 0.90907,-2.68694 1.20561,-4.41524 0.70606,-4.11545 -0.58375,-8.53474 -3.35432,-11.49335 -0.87145,-0.9306 -2.52098,-2.36678 -2.71818,-2.36678 -1.6e-4,2e-5 -7.8e-4,10e-6 -0.001,0 z m -1.42213,41.6109 v 5.2e-4 c 0.23429,-0.0186 -2.74907,2.46739 -4.40955,3.6251 -2.66105,1.8553 -4.95883,2.99451 -8.20467,4.06797 -5.178018,1.71245 -9.432988,2.40341 -18.240228,2.96157 -2.01848,0.12792 -6.27574,0.58149 -8.21397,0.8754 -5.10108,0.77352 -8.69632,1.78454 -12.95787,3.64319 -4.686447,2.04396 -9.444681,5.63371 -11.657165,8.79481 -0.447729,0.63969 -0.687011,0.95926 -0.728638,0.96738 -2.79e-4,3e-5 -0.0012,1e-5 -0.0016,0 h -5.17e-4 -5.17e-4 -5.16e-4 l -5.17e-4,-5.1e-4 h -5.17e-4 l -5.17e-4,-5.2e-4 -5.16e-4,-5.2e-4 v -5.1e-4 l -5.17e-4,-5.2e-4 v -5.2e-4 c -0.01022,-0.0282 0.0959,-0.24106 0.313676,-0.63355 5.276329,-9.5093 16.856751,-14.95409 34.375681,-16.16232 8.14898,-0.56201 16.134378,-2.01796 21.197148,-3.86488 2.18141,-0.79579 6.3912,-2.89159 8.1809,-4.07314 0.20313,-0.1341 0.31448,-0.1961 0.35037,-0.19895 z"
       style="fill:url(#linearGradient11)"
       id="path13" /><path
       d="m 98.063265,97.094332 c -3.760843,2.125643 -18.800483,2.687531 -26.076445,3.106268 0.0908,0.0545 0.193663,0.119 0.314193,0.19534 0.433721,0.27469 2.969178,1.82636 5.359363,3.28249 2.983608,-0.33418 6.534229,-0.56277 10.419002,-0.94207 3.981764,-2.23858 7.24428,-4.08075 9.983887,-5.642028 z m -30.043644,3.501598 c -0.74763,0.25009 -1.391068,0.62408 -2.103748,0.94464 -0.26384,0.12071 -0.512278,0.23638 -0.715718,0.33538 0.02998,0.3969 0.05695,1.99003 0.07338,4.17029 2.562004,-0.6311 6.016103,-1.28013 8.617045,-1.80764 -3.67207,-2.2108 -5.870959,-3.64267 -5.870959,-3.64267 z m -5.093746,2.51819 c -4.199867,2.52977 -7.442774,5.82284 -8.968445,7.57111 0.03267,0.0195 0.06626,0.0453 0.102319,0.0765 0,0 6.583984,-3.24152 8.898165,-4.05556 0.0027,-1.91176 -0.0054,-3.39645 -0.02997,-3.57704 -6.5e-4,-0.005 -0.0011,-0.0101 -0.0021,-0.015 z"
       style="fill:url(#linearGradient12);fill-rule:evenodd;stroke-width:0.232;stroke-linecap:round"
       id="path6" /></g></svg>
