<?xml version="1.0" encoding="UTF-8" standalone="no"?>
<!-- Created with Inkscape (http://www.inkscape.org/) -->

<svg
   version="1.1"
   id="svg1"
   width="258.04202"
   height="258.04202"
   viewBox="0 0 258.04203 258.04203"
   xmlns="http://www.w3.org/2000/svg"
   xmlns:svg="http://www.w3.org/2000/svg">
  <defs
     id="defs1" />
  <g
     id="g1"
     transform="translate(-25.989568,-22.570584)"
     style="fill:#a12626;fill-opacity:1">
    <path
       style="fill:#a12626;fill-opacity:1"
       d="m 131.04115,261.39991 c -0.21438,-0.34687 -1.36134,-0.84098 -2.5488,-1.09803 -8.55917,-1.85277 -19.15902,-11.57554 -19.15902,-17.57371 0,-0.72389 -0.3,-1.50157 -0.66667,-1.72818 C 108.26254,240.75023 108,235.90573 108,228.69864 v -11.88933 l 1.05452,-0.40466 c 1.6915,-0.64909 14.5148,-0.44574 15.61214,0.24757 l 1,0.63181 0.12247,10.52144 0.12246,10.52143 2.36775,2.16988 c 1.32781,1.21685 3.08678,2.16988 4.00485,2.16988 0.90042,0 1.82253,0.3 2.04914,0.66666 0.26108,0.42244 8.39245,0.66667 22.19594,0.66667 h 21.78391 l 3.84033,-1.83333 3.84032,-1.83334 0.37669,-1.66666 c 0.20717,-0.91667 0.65856,-2.1876 1.00308,-2.82429 0.35854,-0.66262 0.62639,-11.68569 0.62639,-25.77881 0,-13.54165 0.1821,-25.09572 0.40466,-25.67571 l 0.40466,-1.05452 25.76201,-0.0393 25.76201,-0.0394 2.95287,-1.46065 c 2.11699,-1.04718 3.39082,-2.29238 4.5,-4.39884 l 1.54713,-2.93819 V 150.7999 127.14285 l -3.2381,-3.23809 -3.23809,-3.2381 h -37.37405 c -20.55573,0 -37.84858,0.1821 -38.42857,0.40466 l -1.05453,0.40466 -0.0102,38.76201 c -0.006,21.3191 -0.23062,39.10417 -0.5,39.52237 -0.35368,0.54907 -13.1127,0.8976 -45.91224,1.25419 l -45.422443,0.49381 -2.17998,-1.08752 c -1.198989,-0.59813 -3.04584,-1.08751 -4.104113,-1.08751 -3.126668,0 -6.893603,-2.37743 -12.243277,-7.7271 -5.018917,-5.01892 -5.435307,-5.66377 -7.709583,-11.93957 l -1.207961,-3.33333 -0.02176,-26.12732 c -0.01393,-16.72293 0.218199,-26.27563 0.644903,-26.53935 0.366666,-0.22661 0.666666,-0.86354 0.666666,-1.41539 0,-4.16382 8.230916,-14.28749 13.333333,-16.39943 1.283334,-0.53118 3.383334,-1.3844 4.666667,-1.89604 l 2.333333,-0.93026 19.333333,-0.3461 L 107,102.33333 l 0.33333,-20 0.33333,-19.999999 2.27637,-4.46276 c 2.97256,-5.827625 8.39199,-11.112467 14.53202,-14.171119 l 4.80839,-2.395296 27.19161,0.183639 27.19161,0.18364 2.33333,0.912775 c 8.71901,3.410784 12.87849,7.243991 17.05679,15.71884 l 2.94321,5.969719 V 75.44626 86.619752 l -1.2895,0.690122 c -1.67496,0.896411 -13.74603,0.896411 -15.42099,0 l -1.28951,-0.690122 v -8.353705 c 0,-5.121532 -0.30273,-8.917119 -0.78243,-9.809877 -0.43034,-0.800895 -0.96631,-2.356172 -1.19106,-3.456172 -0.29343,-1.436205 -1.15348,-2.407697 -3.0509,-3.446258 l -2.64227,-1.446258 -24.11264,-0.05374 -24.11264,-0.05374 -1.94039,1.113633 c -1.06722,0.612498 -2.44153,1.98681 -3.05403,3.054026 L 126,66.10805 v 26.224781 c 0,14.423629 -0.1821,26.699319 -0.40466,27.279309 l -0.40466,1.05452 -27.095342,0.009 c -31.226535,0.0105 -29.642617,-0.19152 -31.794481,4.05498 l -1.634192,3.22492 v 24.55002 24.55003 l 3.028027,2.97213 3.028028,2.97214 37.31876,0.18293 c 25.24873,0.12376 37.74394,-0.0446 38.63336,-0.52063 l 1.3146,-0.70356 0.17194,-39.47937 0.17195,-39.47936 47.85789,-0.17109 47.85789,-0.17109 1.94234,1.00442 c 1.06828,0.55243 2.52049,1.00442 3.22714,1.00442 0.70664,0 1.67647,0.47193 2.15517,1.04873 0.4787,0.5768 2.03813,1.64447 3.46539,2.37261 1.61363,0.82321 2.9335,2.12843 3.49,3.45127 0.49223,1.17007 1.81954,3.00852 2.94957,4.08545 l 2.0546,1.95806 v 33.08339 33.08338 l -1.27594,2.64091 c -1.32387,2.74009 -8.05871,9.60953 -9.42124,9.60953 -0.42736,0 -1.66833,0.75 -2.75773,1.66667 -1.08939,0.91667 -2.69,1.66667 -3.55689,1.66667 -0.86689,0 -1.76158,0.3 -1.98819,0.66666 -0.25807,0.41756 -7.07557,0.66667 -18.24526,0.66667 h -17.83324 l -1.11462,0.83333 -1.11462,0.83334 -0.18899,18 -0.18899,17.99999 -0.9335,2.33334 c -0.51343,1.28333 -1.36754,3.38333 -1.89802,4.66666 -0.53048,1.28334 -3.10612,4.53218 -5.72364,7.21966 -4.40262,4.52028 -6.02645,5.58752 -12.42579,8.16664 l -2.33333,0.94041 -25.4512,0.18527 c -15.49347,0.11279 -25.6037,-0.0615 -25.84098,-0.44539 z"
       id="path1" />
  </g>
</svg>
